<svg version="1.1" id="Layer_1" xmlns="http://www.w3.org/2000/svg" xmlns:xlink="http://www.w3.org/1999/xlink" x="0px" y="0px"
	 width="100%" viewBox="0 0 1254 1254" enable-background="new 0 0 1254 1254" xml:space="preserve">
<path fill="#FDFDFD" opacity="1.000000" stroke="none" 
	d="
M858.000000,1255.000000 
	C572.000000,1255.000000 286.500000,1255.000000 1.000000,1255.000000 
	C1.000000,837.000000 1.000000,419.000000 1.000000,1.000000 
	C419.000000,1.000000 837.000000,1.000000 1255.000000,1.000000 
	C1255.000000,419.000000 1255.000000,837.000000 1255.000000,1255.000000 
	C1122.833374,1255.000000 990.666687,1255.000000 858.000000,1255.000000 
M460.825256,529.667908 
	C482.087219,537.892822 503.244598,546.405273 524.664124,554.197083 
	C532.895691,557.191467 541.659607,558.882385 550.301086,560.540710 
	C557.570068,561.935669 560.781494,557.770691 558.283936,550.835876 
	C557.215454,547.869202 555.938660,544.942993 554.436035,542.172241 
	C524.891846,487.694000 485.971924,441.061096 436.944031,403.102539 
	C404.496582,377.980957 368.968140,358.608398 328.851379,348.644714 
	C317.397827,345.800079 305.710541,343.350098 293.801788,345.863495 
	C284.790100,347.765472 280.407349,353.844330 282.736023,362.714783 
	C284.998810,371.334229 287.892944,379.991211 291.935455,387.903320 
	C305.934509,415.302734 326.342590,437.714966 349.111084,457.986664 
	C382.348022,487.578918 420.077667,510.311493 460.825256,529.667908 
M404.235565,713.726257 
	C433.064514,704.025574 460.638641,691.463562 486.597290,675.694092 
	C501.346252,666.734375 515.289612,656.407776 529.249756,646.222412 
	C532.289795,644.004395 535.730408,639.720093 535.657532,636.461914 
	C535.547424,631.539307 529.652588,631.082520 525.624756,629.862000 
	C502.529968,622.863770 478.704041,620.297302 454.758850,619.183044 
	C421.930206,617.655273 389.212250,619.148193 356.789581,625.027039 
	C314.845581,632.632202 274.791168,645.384094 238.694260,668.731445 
	C227.900360,675.712830 217.615524,683.400635 210.219406,694.210754 
	C203.567429,703.933228 204.898010,711.072205 214.773071,717.355286 
	C218.533203,719.747681 222.618851,721.810974 226.811279,723.311218 
	C251.220703,732.045776 276.554413,733.016724 302.158447,732.324097 
	C336.906555,731.384216 370.544250,724.706726 404.235565,713.726257 
M988.950439,652.561768 
	C943.605042,631.509521 895.627197,621.520996 845.961487,619.157166 
	C819.818787,617.913025 793.609558,618.162781 767.693481,622.254211 
	C753.612854,624.477173 739.657593,627.805115 725.878906,631.503296 
	C718.612488,633.453613 717.797180,638.246704 723.607727,643.095398 
	C733.056274,650.979858 742.512085,659.048401 752.862427,665.626953 
	C804.351257,698.352539 859.696045,721.383423 920.548218,729.521973 
	C951.064636,733.603271 981.737793,734.387390 1012.033020,727.907898 
	C1022.308777,725.710144 1032.498779,721.854004 1041.884277,717.092651 
	C1051.942505,711.990173 1053.179077,703.810669 1046.797363,694.537659 
	C1044.268555,690.863037 1041.251221,687.431763 1038.016113,684.352295 
	C1023.854919,670.872864 1007.113831,661.290405 988.950439,652.561768 
M943.786072,419.279053 
	C946.369202,415.803497 949.087708,412.419464 951.511536,408.836151 
	C960.769470,395.149475 969.702515,381.272919 973.200562,364.759796 
	C975.702271,352.950073 971.495972,346.955017 959.601257,345.226227 
	C957.797180,344.964050 955.890564,344.690765 954.126221,344.987152 
	C941.853333,347.048920 929.262695,348.106750 917.411682,351.631073 
	C875.734375,364.025269 839.329590,386.192261 806.253113,414.076111 
	C776.001770,439.578278 749.766602,468.795044 727.633850,501.516541 
	C717.303650,516.789001 708.406250,533.049927 699.308960,549.117371 
	C697.847046,551.699341 697.473755,556.482971 698.947510,558.651733 
	C700.177979,560.462402 705.027832,560.841370 707.964355,560.267212 
	C715.947449,558.706116 723.850342,556.578064 731.635315,554.187134 
	C770.497498,542.251953 807.395630,525.791016 842.384216,505.135864 
	C880.843018,482.432159 915.462402,455.103027 943.786072,419.279053 
M591.927673,233.431564 
	C580.189941,276.598694 578.218933,320.487976 583.263611,364.687500 
	C588.640137,411.794403 599.376282,457.766907 615.056519,502.534912 
	C617.358093,509.106018 620.084412,515.597168 623.332275,521.746094 
	C625.889099,526.586670 630.228088,526.414734 633.014038,521.731201 
	C634.961670,518.457031 636.644653,514.956543 637.941711,511.374573 
	C662.910583,442.419617 679.009705,371.902222 675.042419,297.922516 
	C673.409546,267.473816 667.931824,237.772552 656.397217,209.432510 
	C651.814575,198.173248 646.479736,187.211853 638.054871,178.117233 
	C631.915283,171.489517 625.461731,171.133850 619.038391,177.509094 
	C616.458008,180.070160 614.120483,182.963882 612.110596,185.996613 
	C602.619019,200.318298 596.924316,216.300003 591.927673,233.431564 
M586.728760,955.802917 
	C589.470032,973.959473 593.403748,991.891846 600.746338,1008.728394 
	C605.295959,1019.160583 610.732422,1029.470459 617.419800,1038.631470 
	C624.104675,1047.789062 631.912720,1046.989258 639.497986,1038.370605 
	C649.643860,1026.842651 655.187622,1012.862671 659.809692,998.608521 
	C672.553589,959.307312 676.095337,918.925598 673.271545,877.813171 
	C670.604248,838.978821 664.030579,800.828064 652.689331,763.641418 
	C647.515015,746.675415 640.538391,730.230042 633.807983,713.782166 
	C631.113403,707.196899 626.388672,707.125366 622.902405,713.283875 
	C619.224243,719.781433 615.884155,726.536804 613.098145,733.461853 
	C596.827637,773.905945 587.901245,816.083496 583.799255,859.381104 
	C580.769836,891.357483 581.613342,923.208679 586.728760,955.802917 
M732.002991,921.492981 
	C746.808167,944.576416 763.128784,966.461548 784.029663,984.443420 
	C790.029358,989.605225 796.796082,994.151978 803.836792,997.759827 
	C813.413452,1002.667175 820.556885,998.919678 822.796997,988.463562 
	C823.939270,983.131897 824.684265,977.598022 824.677185,972.156799 
	C824.640381,943.764526 818.776733,916.262878 810.488098,889.319397 
	C789.287292,820.402283 748.987000,763.935242 696.010742,715.957825 
	C689.864014,710.391113 683.158203,705.367676 676.317688,700.665466 
	C671.226257,697.165588 667.779419,699.142212 667.327576,705.400574 
	C667.028870,709.538025 666.869080,713.793030 667.480469,717.870483 
	C670.536438,738.254822 672.987915,758.785156 677.275818,778.918396 
	C687.946228,829.018738 703.810608,877.275391 732.002991,921.492981 
M564.203491,833.742737 
	C574.748657,802.248779 581.925049,769.947937 586.664429,737.127014 
	C588.204102,726.464966 588.557251,715.602112 588.929382,704.813049 
	C589.124512,699.153198 585.576172,697.384644 580.696838,700.279358 
	C577.702332,702.056030 574.655334,703.967590 572.199829,706.393494 
	C555.041992,723.344604 537.285706,739.772461 521.155273,757.661133 
	C498.533264,782.748779 480.260193,811.019714 465.506348,841.466431 
	C447.786469,878.034180 436.130432,916.424561 432.604828,956.965393 
	C431.680115,967.598511 432.492310,978.612610 434.199280,989.178284 
	C435.815765,999.184021 442.168152,1001.840515 451.593079,998.261353 
	C454.216156,997.265259 456.772125,995.958679 459.143311,994.454712 
	C474.395233,984.780762 486.613770,971.795898 497.882172,957.942200 
	C527.863403,921.082214 549.679993,879.792114 564.203491,833.742737 
M544.768616,341.749939 
	C543.450256,339.056335 542.143127,336.357147 540.811829,333.669922 
	C523.866333,299.464050 502.773560,268.312378 473.600983,243.221954 
	C466.279205,236.924744 458.583893,230.953659 448.924011,228.524078 
	C442.175659,226.826813 437.317963,229.071716 434.863739,235.544785 
	C433.356171,239.520905 432.436432,243.882812 432.152252,248.131638 
	C430.930511,266.400085 433.733887,284.300690 437.583679,302.097504 
	C447.214905,346.620819 467.286011,386.337677 493.134338,423.429779 
	C513.643311,452.859863 535.991699,480.829468 560.261353,507.225708 
	C568.136353,515.790771 576.666321,523.794495 585.316589,531.589050 
	C589.735107,535.570435 592.912048,533.891418 593.582764,527.967102 
	C593.713135,526.815613 593.736572,525.624207 593.603455,524.475098 
	C592.320923,513.405334 591.543823,502.242493 589.586670,491.291351 
	C580.419006,439.996094 566.934937,389.955109 544.768616,341.749939 
M677.984558,442.433350 
	C675.024109,456.762177 671.644531,471.020660 669.224792,485.440247 
	C666.944031,499.031677 665.547424,512.779236 664.090637,526.493103 
	C663.861267,528.652710 665.373047,530.997192 666.079712,533.256165 
	C668.456177,532.453979 671.246460,532.188599 673.124939,530.740479 
	C677.328247,527.500183 681.287048,523.873108 684.978271,520.049133 
	C712.213745,491.834167 737.122131,461.697021 759.103455,429.200897 
	C789.915222,383.650055 813.654358,335.038086 822.320007,280.116821 
	C824.414917,266.839600 826.397644,253.415573 823.174377,239.987274 
	C820.411865,228.478790 813.573181,224.805267 803.291260,230.513336 
	C795.372925,234.909210 787.802002,240.363007 781.128113,246.491455 
	C755.703857,269.838043 736.342468,297.835541 720.066650,328.111908 
	C700.776489,363.995789 687.734375,402.165863 677.984558,442.433350 
M776.893188,701.666199 
	C757.340759,693.214294 737.817566,684.693542 718.208618,676.374756 
	C714.714600,674.892456 710.914368,673.986084 707.167664,673.280701 
	C702.067566,672.320374 699.998901,674.800598 702.170898,679.424133 
	C704.214294,683.773865 706.518250,688.113342 709.394714,691.940979 
	C726.495605,714.696655 743.041443,737.928284 761.197754,759.818909 
	C792.089905,797.064941 827.391357,829.707031 868.324341,855.873230 
	C891.431091,870.644104 915.413574,883.737244 942.584961,889.377380 
	C948.902100,890.688538 955.822937,890.541992 962.230042,889.546875 
	C968.229065,888.615234 971.166870,883.219910 969.408569,877.343140 
	C967.086914,869.583923 964.607910,861.682190 960.802734,854.589417 
	C945.137695,825.389771 922.566162,801.822021 897.978638,780.115906 
	C861.735413,748.120117 820.481689,723.755066 776.893188,701.666199 
M425.956696,828.460815 
	C441.673615,813.840210 457.983246,799.799744 472.982147,784.476318 
	C502.760559,754.053467 529.087402,720.772034 551.802063,684.705322 
	C552.861694,683.022827 553.890930,681.263672 554.563171,679.405945 
	C556.245972,674.755249 554.423035,672.516968 549.657227,673.396973 
	C547.050903,673.878235 544.469055,674.632019 541.967651,675.520447 
	C492.902832,692.945312 447.132294,716.924683 403.800323,745.606384 
	C370.409454,767.707947 340.553528,793.867371 315.430969,825.183777 
	C304.454559,838.866272 294.547058,853.271973 288.813110,870.065918 
	C282.855896,887.513855 291.670990,892.088623 306.647034,890.769043 
	C306.976318,890.739990 307.296448,890.619019 307.625336,890.571960 
	C327.028656,887.790833 344.748840,880.136963 361.903412,871.199341 
	C384.559875,859.395264 405.543976,844.971130 425.956696,828.460815 
M925.577026,585.029480 
	C932.178650,583.307434 938.823425,581.734558 945.374390,579.837463 
	C974.091553,571.521423 1002.155762,561.514038 1027.581177,545.443115 
	C1034.259888,541.221558 1040.478027,535.955750 1045.982056,530.273132 
	C1052.581665,523.459412 1051.262329,516.473999 1042.947021,511.773041 
	C1038.511963,509.265747 1033.583740,506.918091 1028.627075,506.177673 
	C1012.696899,503.797974 996.683105,501.009583 980.640625,500.561249 
	C951.896362,499.757965 923.507202,503.902130 895.585815,510.789001 
	C848.355774,522.438354 804.052917,541.434937 761.687805,565.054321 
	C748.756775,572.263550 736.338623,580.405334 723.838745,588.360657 
	C722.133545,589.445984 721.321777,591.935303 720.096375,593.774536 
	C721.998291,594.835144 723.819153,596.610779 725.815613,596.837036 
	C736.554504,598.054016 747.320496,599.410645 758.107666,599.752136 
	C790.256653,600.769897 822.455200,601.002441 854.398315,596.743469 
	C877.949341,593.603516 901.319763,589.109314 925.577026,585.029480 
M223.834473,507.233032 
	C220.057297,508.958527 216.024033,510.282715 212.557343,512.494812 
	C205.778076,516.820557 204.679581,523.386902 209.987411,529.459534 
	C213.781448,533.800232 218.156418,537.831177 222.881195,541.127319 
	C248.748016,559.173096 277.895752,570.052795 307.866730,578.839722 
	C343.257385,589.215698 379.478729,595.148499 416.221497,598.152893 
	C450.317322,600.940796 484.415344,600.787598 518.526611,598.786499 
	C522.992004,598.524597 527.454407,597.732422 531.837341,596.803955 
	C533.394836,596.474121 535.361572,595.286682 535.924500,593.970276 
	C536.343689,592.989929 535.128113,590.842224 534.066650,589.797791 
	C532.067078,587.830200 529.800781,586.035034 527.387512,584.602783 
	C513.357849,576.276245 499.482056,567.651672 485.129059,559.916809 
	C449.110779,540.506470 411.681335,524.382385 372.092010,513.678772 
	C344.527649,506.226257 316.527557,501.558624 287.898468,500.685699 
	C266.479309,500.032593 245.318741,501.094238 223.834473,507.233032 
M575.873352,664.615295 
	C593.798706,683.649048 615.774048,691.391907 641.422668,686.589783 
	C675.867676,680.140564 700.458862,648.812805 698.891785,614.529907 
	C697.257874,578.784668 669.979187,550.052002 634.347778,546.545715 
	C595.872192,542.759460 560.588135,572.615051 557.739258,611.127563 
	C556.244995,631.327454 562.468628,648.785278 575.873352,664.615295 
z"/>
<path fill="#8A6DCB" opacity="1.000000" stroke="none" 
	d="
M460.489502,529.497559 
	C420.077667,510.311493 382.348022,487.578918 349.111084,457.986664 
	C326.342590,437.714966 305.934509,415.302734 291.935455,387.903320 
	C287.892944,379.991211 284.998810,371.334229 282.736023,362.714783 
	C280.407349,353.844330 284.790100,347.765472 293.801788,345.863495 
	C305.710541,343.350098 317.397827,345.800079 328.851379,348.644714 
	C368.968140,358.608398 404.496582,377.980957 436.944031,403.102539 
	C485.971924,441.061096 524.891846,487.694000 554.436035,542.172241 
	C555.938660,544.942993 557.215454,547.869202 558.283936,550.835876 
	C560.781494,557.770691 557.570068,561.935669 550.301086,560.540710 
	C541.659607,558.882385 532.895691,557.191467 524.664124,554.197083 
	C503.244598,546.405273 482.087219,537.892822 460.489502,529.497559 
z"/>
<path fill="#8B6ECB" opacity="1.000000" stroke="none" 
	d="
M403.857300,713.843018 
	C370.544250,724.706726 336.906555,731.384216 302.158447,732.324097 
	C276.554413,733.016724 251.220703,732.045776 226.811279,723.311218 
	C222.618851,721.810974 218.533203,719.747681 214.773071,717.355286 
	C204.898010,711.072205 203.567429,703.933228 210.219406,694.210754 
	C217.615524,683.400635 227.900360,675.712830 238.694260,668.731445 
	C274.791168,645.384094 314.845581,632.632202 356.789581,625.027039 
	C389.212250,619.148193 421.930206,617.655273 454.758850,619.183044 
	C478.704041,620.297302 502.529968,622.863770 525.624756,629.862000 
	C529.652588,631.082520 535.547424,631.539307 535.657532,636.461914 
	C535.730408,639.720093 532.289795,644.004395 529.249756,646.222412 
	C515.289612,656.407776 501.346252,666.734375 486.597290,675.694092 
	C460.638641,691.463562 433.064514,704.025574 403.857300,713.843018 
z"/>
<path fill="#8B6ECC" opacity="1.000000" stroke="none" 
	d="
M989.290039,652.721802 
	C1007.113831,661.290405 1023.854919,670.872864 1038.016113,684.352295 
	C1041.251221,687.431763 1044.268555,690.863037 1046.797363,694.537659 
	C1053.179077,703.810669 1051.942505,711.990173 1041.884277,717.092651 
	C1032.498779,721.854004 1022.308777,725.710144 1012.033020,727.907898 
	C981.737793,734.387390 951.064636,733.603271 920.548218,729.521973 
	C859.696045,721.383423 804.351257,698.352539 752.862427,665.626953 
	C742.512085,659.048401 733.056274,650.979858 723.607727,643.095398 
	C717.797180,638.246704 718.612488,633.453613 725.878906,631.503296 
	C739.657593,627.805115 753.612854,624.477173 767.693481,622.254211 
	C793.609558,618.162781 819.818787,617.913025 845.961487,619.157166 
	C895.627197,621.520996 943.605042,631.509521 989.290039,652.721802 
z"/>
<path fill="#8B6ECB" opacity="1.000000" stroke="none" 
	d="
M943.570190,419.564606 
	C915.462402,455.103027 880.843018,482.432159 842.384216,505.135864 
	C807.395630,525.791016 770.497498,542.251953 731.635315,554.187134 
	C723.850342,556.578064 715.947449,558.706116 707.964355,560.267212 
	C705.027832,560.841370 700.177979,560.462402 698.947510,558.651733 
	C697.473755,556.482971 697.847046,551.699341 699.308960,549.117371 
	C708.406250,533.049927 717.303650,516.789001 727.633850,501.516541 
	C749.766602,468.795044 776.001770,439.578278 806.253113,414.076111 
	C839.329590,386.192261 875.734375,364.025269 917.411682,351.631073 
	C929.262695,348.106750 941.853333,347.048920 954.126221,344.987152 
	C955.890564,344.690765 957.797180,344.964050 959.601257,345.226227 
	C971.495972,346.955017 975.702271,352.950073 973.200562,364.759796 
	C969.702515,381.272919 960.769470,395.149475 951.511536,408.836151 
	C949.087708,412.419464 946.369202,415.803497 943.570190,419.564606 
z"/>
<path fill="#8B6ECB" opacity="1.000000" stroke="none" 
	d="
M592.013550,233.036346 
	C596.924316,216.300003 602.619019,200.318298 612.110596,185.996613 
	C614.120483,182.963882 616.458008,180.070160 619.038391,177.509094 
	C625.461731,171.133850 631.915283,171.489517 638.054871,178.117233 
	C646.479736,187.211853 651.814575,198.173248 656.397217,209.432510 
	C667.931824,237.772552 673.409546,267.473816 675.042419,297.922516 
	C679.009705,371.902222 662.910583,442.419617 637.941711,511.374573 
	C636.644653,514.956543 634.961670,518.457031 633.014038,521.731201 
	C630.228088,526.414734 625.889099,526.586670 623.332275,521.746094 
	C620.084412,515.597168 617.358093,509.106018 615.056519,502.534912 
	C599.376282,457.766907 588.640137,411.794403 583.263611,364.687500 
	C578.218933,320.487976 580.189941,276.598694 592.013550,233.036346 
z"/>
<path fill="#8B6ECB" opacity="1.000000" stroke="none" 
	d="
M586.632080,955.376587 
	C581.613342,923.208679 580.769836,891.357483 583.799255,859.381104 
	C587.901245,816.083496 596.827637,773.905945 613.098145,733.461853 
	C615.884155,726.536804 619.224243,719.781433 622.902405,713.283875 
	C626.388672,707.125366 631.113403,707.196899 633.807983,713.782166 
	C640.538391,730.230042 647.515015,746.675415 652.689331,763.641418 
	C664.030579,800.828064 670.604248,838.978821 673.271545,877.813171 
	C676.095337,918.925598 672.553589,959.307312 659.809692,998.608521 
	C655.187622,1012.862671 649.643860,1026.842651 639.497986,1038.370605 
	C631.912720,1046.989258 624.104675,1047.789062 617.419800,1038.631470 
	C610.732422,1029.470459 605.295959,1019.160583 600.746338,1008.728394 
	C593.403748,991.891846 589.470032,973.959473 586.632080,955.376587 
z"/>
<path fill="#8C6FCC" opacity="1.000000" stroke="none" 
	d="
M731.801147,921.193115 
	C703.810608,877.275391 687.946228,829.018738 677.275818,778.918396 
	C672.987915,758.785156 670.536438,738.254822 667.480469,717.870483 
	C666.869080,713.793030 667.028870,709.538025 667.327576,705.400574 
	C667.779419,699.142212 671.226257,697.165588 676.317688,700.665466 
	C683.158203,705.367676 689.864014,710.391113 696.010742,715.957825 
	C748.987000,763.935242 789.287292,820.402283 810.488098,889.319397 
	C818.776733,916.262878 824.640381,943.764526 824.677185,972.156799 
	C824.684265,977.598022 823.939270,983.131897 822.796997,988.463562 
	C820.556885,998.919678 813.413452,1002.667175 803.836792,997.759827 
	C796.796082,994.151978 790.029358,989.605225 784.029663,984.443420 
	C763.128784,966.461548 746.808167,944.576416 731.801147,921.193115 
z"/>
<path fill="#8A6DCB" opacity="1.000000" stroke="none" 
	d="
M564.090088,834.123596 
	C549.679993,879.792114 527.863403,921.082214 497.882172,957.942200 
	C486.613770,971.795898 474.395233,984.780762 459.143311,994.454712 
	C456.772125,995.958679 454.216156,997.265259 451.593079,998.261353 
	C442.168152,1001.840515 435.815765,999.184021 434.199280,989.178284 
	C432.492310,978.612610 431.680115,967.598511 432.604828,956.965393 
	C436.130432,916.424561 447.786469,878.034180 465.506348,841.466431 
	C480.260193,811.019714 498.533264,782.748779 521.155273,757.661133 
	C537.285706,739.772461 555.041992,723.344604 572.199829,706.393494 
	C574.655334,703.967590 577.702332,702.056030 580.696838,700.279358 
	C585.576172,697.384644 589.124512,699.153198 588.929382,704.813049 
	C588.557251,715.602112 588.204102,726.464966 586.664429,737.127014 
	C581.925049,769.947937 574.748657,802.248779 564.090088,834.123596 
z"/>
<path fill="#8B6DCB" opacity="1.000000" stroke="none" 
	d="
M544.914673,342.096863 
	C566.934937,389.955109 580.419006,439.996094 589.586670,491.291351 
	C591.543823,502.242493 592.320923,513.405334 593.603455,524.475098 
	C593.736572,525.624207 593.713135,526.815613 593.582764,527.967102 
	C592.912048,533.891418 589.735107,535.570435 585.316589,531.589050 
	C576.666321,523.794495 568.136353,515.790771 560.261353,507.225708 
	C535.991699,480.829468 513.643311,452.859863 493.134338,423.429779 
	C467.286011,386.337677 447.214905,346.620819 437.583679,302.097504 
	C433.733887,284.300690 430.930511,266.400085 432.152252,248.131638 
	C432.436432,243.882812 433.356171,239.520905 434.863739,235.544785 
	C437.317963,229.071716 442.175659,226.826813 448.924011,228.524078 
	C458.583893,230.953659 466.279205,236.924744 473.600983,243.221954 
	C502.773560,268.312378 523.866333,299.464050 540.811829,333.669922 
	C542.143127,336.357147 543.450256,339.056335 544.914673,342.096863 
z"/>
<path fill="#8A6ECB" opacity="1.000000" stroke="none" 
	d="
M678.057678,442.025269 
	C687.734375,402.165863 700.776489,363.995789 720.066650,328.111908 
	C736.342468,297.835541 755.703857,269.838043 781.128113,246.491455 
	C787.802002,240.363007 795.372925,234.909210 803.291260,230.513336 
	C813.573181,224.805267 820.411865,228.478790 823.174377,239.987274 
	C826.397644,253.415573 824.414917,266.839600 822.320007,280.116821 
	C813.654358,335.038086 789.915222,383.650055 759.103455,429.200897 
	C737.122131,461.697021 712.213745,491.834167 684.978271,520.049133 
	C681.287048,523.873108 677.328247,527.500183 673.124939,530.740479 
	C671.246460,532.188599 668.456177,532.453979 666.079712,533.256226 
	C665.373047,530.997192 663.861267,528.652710 664.090637,526.493103 
	C665.547424,512.779236 666.944031,499.031677 669.224792,485.440247 
	C671.644531,471.020660 675.024109,456.762177 678.057678,442.025269 
z"/>
<path fill="#8B6ECB" opacity="1.000000" stroke="none" 
	d="
M777.228760,701.832397 
	C820.481689,723.755066 861.735413,748.120117 897.978638,780.115906 
	C922.566162,801.822021 945.137695,825.389771 960.802734,854.589417 
	C964.607910,861.682190 967.086914,869.583923 969.408569,877.343140 
	C971.166870,883.219910 968.229065,888.615234 962.230042,889.546875 
	C955.822937,890.541992 948.902100,890.688538 942.584961,889.377380 
	C915.413574,883.737244 891.431091,870.644104 868.324341,855.873230 
	C827.391357,829.707031 792.089905,797.064941 761.197754,759.818909 
	C743.041443,737.928284 726.495605,714.696655 709.394714,691.940979 
	C706.518250,688.113342 704.214294,683.773865 702.170898,679.424133 
	C699.998901,674.800598 702.067566,672.320374 707.167664,673.280701 
	C710.914368,673.986084 714.714600,674.892456 718.208618,676.374756 
	C737.817566,684.693542 757.340759,693.214294 777.228760,701.832397 
z"/>
<path fill="#8A6DCB" opacity="1.000000" stroke="none" 
	d="
M425.683838,828.691284 
	C405.543976,844.971130 384.559875,859.395264 361.903412,871.199341 
	C344.748840,880.136963 327.028656,887.790833 307.625336,890.571960 
	C307.296448,890.619019 306.976318,890.739990 306.647034,890.769043 
	C291.670990,892.088623 282.855896,887.513855 288.813110,870.065918 
	C294.547058,853.271973 304.454559,838.866272 315.430969,825.183777 
	C340.553528,793.867371 370.409454,767.707947 403.800323,745.606384 
	C447.132294,716.924683 492.902832,692.945312 541.967651,675.520447 
	C544.469055,674.632019 547.050903,673.878235 549.657227,673.396973 
	C554.423035,672.516968 556.245972,674.755249 554.563171,679.405945 
	C553.890930,681.263672 552.861694,683.022827 551.802063,684.705322 
	C529.087402,720.772034 502.760559,754.053467 472.982147,784.476318 
	C457.983246,799.799744 441.673615,813.840210 425.683838,828.691284 
z"/>
<path fill="#8B6ECC" opacity="1.000000" stroke="none" 
	d="
M925.173828,585.124023 
	C901.319763,589.109314 877.949341,593.603516 854.398315,596.743469 
	C822.455200,601.002441 790.256653,600.769897 758.107666,599.752136 
	C747.320496,599.410645 736.554504,598.054016 725.815613,596.837036 
	C723.819153,596.610779 721.998291,594.835144 720.096375,593.774536 
	C721.321777,591.935303 722.133545,589.445984 723.838745,588.360657 
	C736.338623,580.405334 748.756775,572.263550 761.687805,565.054321 
	C804.052917,541.434937 848.355774,522.438354 895.585815,510.789001 
	C923.507202,503.902130 951.896362,499.757965 980.640625,500.561249 
	C996.683105,501.009583 1012.696899,503.797974 1028.627075,506.177673 
	C1033.583740,506.918091 1038.511963,509.265747 1042.947021,511.773041 
	C1051.262329,516.473999 1052.581665,523.459412 1045.982056,530.273132 
	C1040.478027,535.955750 1034.259888,541.221558 1027.581177,545.443115 
	C1002.155762,561.514038 974.091553,571.521423 945.374390,579.837463 
	C938.823425,581.734558 932.178650,583.307434 925.173828,585.124023 
z"/>
<path fill="#8A6DCB" opacity="1.000000" stroke="none" 
	d="
M224.217621,507.129791 
	C245.318741,501.094238 266.479309,500.032593 287.898468,500.685699 
	C316.527557,501.558624 344.527649,506.226257 372.092010,513.678772 
	C411.681335,524.382385 449.110779,540.506470 485.129059,559.916809 
	C499.482056,567.651672 513.357849,576.276245 527.387512,584.602783 
	C529.800781,586.035034 532.067078,587.830200 534.066650,589.797791 
	C535.128113,590.842224 536.343689,592.989929 535.924500,593.970276 
	C535.361572,595.286682 533.394836,596.474121 531.837341,596.803955 
	C527.454407,597.732422 522.992004,598.524597 518.526611,598.786499 
	C484.415344,600.787598 450.317322,600.940796 416.221497,598.152893 
	C379.478729,595.148499 343.257385,589.215698 307.866730,578.839722 
	C277.895752,570.052795 248.748016,559.173096 222.881195,541.127319 
	C218.156418,537.831177 213.781448,533.800232 209.987411,529.459534 
	C204.679581,523.386902 205.778076,516.820557 212.557343,512.494812 
	C216.024033,510.282715 220.057297,508.958527 224.217621,507.129791 
z"/>
<path fill="#FEB61D" opacity="1.000000" stroke="none" 
	d="
M575.636719,664.352783 
	C562.468628,648.785278 556.244995,631.327454 557.739258,611.127563 
	C560.588135,572.615051 595.872192,542.759460 634.347778,546.545715 
	C669.979187,550.052002 697.257874,578.784668 698.891785,614.529907 
	C700.458862,648.812805 675.867676,680.140564 641.422668,686.589783 
	C615.774048,691.391907 593.798706,683.649048 575.636719,664.352783 
z"/>
</svg>